<?xml version="1.0" encoding="utf-8"?>
<!-- Generator: Adobe Illustrator 22.1.0, SVG Export Plug-In . SVG Version: 6.00 Build 0)  -->
<svg version="1.1" id="Ebene_1" xmlns="http://www.w3.org/2000/svg" xmlns:xlink="http://www.w3.org/1999/xlink" x="0px" y="0px"
	 viewBox="0 0 385 384.9" style="enable-background:new 0 0 385 384.9;" xml:space="preserve">
<style type="text/css">
	.st0{fill:#FFFFFF;}
</style>
<g>
	<path class="st0" d="M192.2,0C298.6,0,384.9,86.1,385,192.4c0,106-86.5,192.5-192.4,192.5C86.4,384.9-0.1,298.4,0,192.2
		C0.1,86.3,86.3,0,192.2,0z M348.2,192C347.1,104.7,276.6,35.5,190,36.7c-85.6,1.2-154.5,72.2-153,158.7
		c1.4,84.8,70.9,153.5,157,152.6C280.5,347.1,347.9,277,348.2,192z"/>
	<path class="st0" d="M140.1,102.3c2.3,0.9,4.8,1.5,7,2.7c32,17.5,63.9,35.1,95.9,52.7c14.9,8.2,29.7,16.4,44.6,24.5
		c4.3,2.3,7.5,5.4,7.4,10.5c-0.1,4.9-3.4,7.8-7.5,10.1c-46.7,25.6-93.4,51.3-140.1,77.1c-4.1,2.3-8.1,3.3-12.6,1.1
		c-4.6-2.3-6.4-6-6.4-11.1c0-29.6,0-59.1,0-88.7c0-22.2,0-44.4,0-66.6C128.5,107.6,133.2,102.8,140.1,102.3z"/>
</g>
</svg>
